<svg width="36" height="36" fill="none" xmlns="http://www.w3.org/2000/svg"><path d="M35.726 3.85A3.854 3.854 0 0031.876 0H3.85A3.855 3.855 0 000 3.853V31.88a3.854 3.854 0 003.85 3.85h28.029a3.858 3.858 0 003.849-3.85l-.002-28.03zM16.108 33.636V21.228a1.047 1.047 0 00-1.047-1.047h-3.438v-3.512h3.438a1.047 1.047 0 001.047-1.047v-4.484a4.564 4.564 0 014.559-4.56h3.438v3.513h-3.438a1.047 1.047 0 00-1.047 1.047v4.485a1.047 1.047 0 001.047 1.047h3.208l-.7 3.512h-2.508a1.046 1.046 0 00-1.047 1.047v12.407h-3.512zm17.01-.517a1.743 1.743 0 01-1.239.517H21.714V22.275h2.317a1.048 1.048 0 001.026-.841l1.121-5.606a1.047 1.047 0 00-1.026-1.252h-3.438v-2.391h3.438a1.047 1.047 0 001.048-1.047V5.532a1.047 1.047 0 00-1.047-1.047h-4.486a6.66 6.66 0 00-6.652 6.653v3.438h-3.438a1.047 1.047 0 00-1.047 1.047v5.606a1.047 1.047 0 001.047 1.047h3.438v11.36H3.85a1.758 1.758 0 01-1.756-1.756V3.852A1.759 1.759 0 013.85 2.096h28.026a1.758 1.758 0 011.756 1.756V31.88a1.742 1.742 0 01-.517 1.239l.003-.001z" fill="#fff"/></svg>