<svg width="37" height="36" fill="none" xmlns="http://www.w3.org/2000/svg"><path d="M18.186 8.97a8.895 8.895 0 100 17.79 8.895 8.895 0 000-17.79zm0 15.7a6.8 6.8 0 116.8-6.8 6.809 6.809 0 01-6.8 6.796v.004z" fill="#fff"/><path d="M26.594 0H9.776A9.466 9.466 0 00.321 9.457v16.818a9.466 9.466 0 009.455 9.455h16.818a9.466 9.466 0 009.455-9.455V9.456A9.466 9.466 0 0026.594 0zm7.362 26.274a7.37 7.37 0 01-7.362 7.362H9.776a7.37 7.37 0 01-7.362-7.362V9.456a7.37 7.37 0 017.362-7.362h16.818a7.37 7.37 0 017.362 7.362v16.818z" fill="#fff"/><path d="M28.136 6.867a1.047 1.047 0 10-.001 2.093 1.047 1.047 0 00.001-2.093z" fill="#fff"/></svg>