<svg width="37" height="30" fill="none" xmlns="http://www.w3.org/2000/svg"><path d="M35.82.83A2.318 2.318 0 0033.979 0c-.438.007-.87.093-1.278.254L2.452 11.714C.84 12.323.628 13.24.64 13.733c.013.492.28 1.387 1.9 1.9l6.415 2.35 3.38 7.74a2.93 2.93 0 001.957 2.065c.208.056.422.084.637.084a3.164 3.164 0 002.14-.935l2.8-2.631 6.835 4.7a3.282 3.282 0 001.936.702 2.816 2.816 0 002.7-2.472L36.288 3.31a2.92 2.92 0 00-.462-2.48h-.005zM11.08 17.627l8.73-4.681-6.084 5.58a1.048 1.048 0 00-.338.77v.032l-.021 3.529-2.286-5.23zm4.56 7.789c-.06.057-.125.11-.192.16l.026-4.3 2.637 1.815-2.47 2.325zm18.6-22.528l-4.954 23.925c-.05.24-.212.8-.643.8a1.263 1.263 0 01-.7-.292l-.033-.024-7.534-5.186-4.26-2.932L27.363 8.857a1.047 1.047 0 00-1.2-1.694l-16.51 8.852-6.412-2.35-.014-.004L33.44 2.21c.17-.071.352-.11.537-.117.052 0 .177.006.22.059a1 1 0 01.035.734h.008z" fill="#fff"/></svg>